{"title":"Projeto Thomaz Farkas 7 - Thomaz Farkas","uid":5587060,"size":1625030277,"categoryP":"video","categoryS":"movies","magnet":"?xt=urn:btih:a459dd4c24d2b1129ea6422626cf56c66d2177fc&amp;dn=Projeto+Thomaz+Farkas+7+-+Thomaz+Farkas&amp;tr=udp%3A%2F%2Ftracker.openbittorrent.com%3A80&amp;tr=udp%3A%2F%2Fopen.demonii.com%3A1337&amp;tr=udp%3A%2F%2Ftracker.coppersurfer.tk%3A6969&amp;tr=udp%3A%2F%2Fexodus.desync.com%3A6969","seeders":4,"leechers":0,"uploader":"mfccorrea","files":6,"time":1274730421,"description":"Projeto Thomaz Farkas 7 - Thomaz Farkas\n\nProject Thomaz Farkas is a collection of 39 documentaries produced by Thomas Farkas  in the 1960s and 1970s, featuring various cultural events of Brazil linked to the specific reality of each region. The documentaries were organized in a box containing seven discs, and include a short interview with the participation of renowned photographer, producer and documentary filmmaker, exposing a broad universe of Brazilian culture.\n\nThe Disc 7 contains the following documentaries:\n\nHermeto, CampeÃƒÂ£o (1981)\nParaiso, Juarez (1971)\nPixinguinha e a Velha Guarda do Samba (1954-2006)\nTodomundo (1980)\n\nand an interview with Thomaz farkas by Walter Lima Jr\n\nWalter Lima Jr - Entrevista com Thomaz Farkas\n\nAll films have Portuguese audio, and no subtitles. There's a 300 dpi scan of the DVD cover included.\n\n    General\n      Complete name : Projeto Thomaz Farkas - Thomaz Farkas.avi\n      Format : AVI\n      Format/Info : Audio Video Interleave\n      File size : 1.51 GiB\n      Duration : 1h 50mn\n      Overall bit rate : 1 957 Kbps\n      Writing application : FairUse Wizard - http://fairusewizard.com\n      Writing library : VirtualDub build 32593/release\n   Video #0\n      ID : 0\n      Format : MPEG-4 Visual\n      Format profile : AdvancedSimple@L5\n      Format settings, BVOP : Yes\n      Format settings, QPel : No\n      Format settings, GMC : No warppoints\n      Format settings, Matrix : Default (MPEG)\n      Muxing mode : Packed bitstream\n      Codec ID : XVID\n      Codec ID/Hint : XviD\n      Duration : 1h 50mn\n      Bit rate : 1 723 Kbps\n      Width : 640 pixels\n      Height : 464 pixels\n      Display aspect ratio : 1.379\n      Frame rate : 23.976 fps\n      Resolution : 24 bits\n      Colorimetry : 4:2:0\n      Scan type : Progressive\n      Bits/(Pixel*Frame) : 0.242\n      Stream size : 1.33 GiB (88%)\n      Writing library : XviD 1.2.0.dev47 (UTC 2006-11-01)\n   Audio #1\n      ID : 1\n      Format : AC-3\n      Format/Info : Audio Coding 3\n      Codec ID : 2000\n      Duration : 1h 50mn\n      Bit rate mode : Constant\n      Bit rate : 224 Kbps\n      Channel(s) : 2 channels\n      Channel positions : L R\n      Sampling rate : 48.0 KHz\n      Stream size : 177 MiB (11%)\n      Alignment : Split accross interleaves\n      Interleave, duration : 42 ms (1.00 video frame)\n      Interleave, preload duration : 500 ms\n\nAll films were ripped individually. The specs refer to the films assembled together.\n","torrent":{"xt":"urn:btih:a459dd4c24d2b1129ea6422626cf56c66d2177fc","amp;dn":"Projeto+Thomaz+Farkas+7+-+Thomaz+Farkas","amp;tr":["udp%3A%2F%2Ftracker.openbittorrent.com%3A80","udp%3A%2F%2Fopen.demonii.com%3A1337","udp%3A%2F%2Ftracker.coppersurfer.tk%3A6969","udp%3A%2F%2Fexodus.desync.com%3A6969"],"infoHash":"a459dd4c24d2b1129ea6422626cf56c66d2177fc","infoHashBuffer":{"type":"Buffer","data":[164,89,221,76,36,210,177,18,158,166,66,38,38,207,86,198,109,33,119,252]},"announce":[],"urlList":[]}}